<?xml version="1.0" encoding="iso-8859-1"?>
<!-- Uploaded to: SVG Repo, www.svgrepo.com, Generator: SVG Repo Mixer Tools -->
<svg fill="#000000" height="800px" width="800px" version="1.1" id="Layer_1" xmlns="http://www.w3.org/2000/svg" xmlns:xlink="http://www.w3.org/1999/xlink" 
	 viewBox="0 0 512 512" xml:space="preserve">
<g>
	<g>
		<path d="M132.344,230.792c-13.9,0-25.208,11.309-25.208,25.208c0,13.9,11.308,25.208,25.208,25.208s25.208-11.307,25.208-25.208
			C157.553,242.1,146.244,230.792,132.344,230.792z"/>
	</g>
</g>
<g>
	<g>
		<path d="M442.677,186.677h-197.57c-23.993-39.155-66.19-63.021-112.762-63.021C59.37,123.656,0,183.025,0,256
			s59.37,132.344,132.344,132.344c44.819,0,85.58-22.096,109.971-58.656l41.28,41.28l37.813-37.813l37.813,37.813l45.644-45.645
			h37.813L512,256L442.677,186.677z M427.015,287.511h-37.813l-29.982,29.982l-37.813-37.813l-37.813,37.813l-29.982-29.982h-31.349
			l-5.214,10.492c-16.102,32.402-48.559,52.529-84.705,52.529c-52.125,0-94.532-42.407-94.532-94.532s42.407-94.532,94.532-94.532
			c36.146,0,68.604,20.129,84.705,52.529l5.214,10.492h204.751L458.525,256L427.015,287.511z"/>
	</g>
</g>
</svg>