<!DOCTYPE svg PUBLIC "-//W3C//DTD SVG 1.1//EN" "http://www.w3.org/Graphics/SVG/1.1/DTD/svg11.dtd">
<!-- Uploaded to: SVG Repo, www.svgrepo.com, Transformed by: SVG Repo Mixer Tools -->
<svg fill="#000000" height="800px" width="800px" version="1.1" id="Layer_1" xmlns="http://www.w3.org/2000/svg" xmlns:xlink="http://www.w3.org/1999/xlink" viewBox="0 0 512 512" xml:space="preserve" stroke="#000000" stroke-width="8.192">
<g id="SVGRepo_bgCarrier" stroke-width="0"/>
<g id="SVGRepo_tracerCarrier" stroke-linecap="round" stroke-linejoin="round"/>
<g id="SVGRepo_iconCarrier"> <g> <g> <path d="M9.003,0c-4.662,0-8.44,3.778-8.44,8.44v93.546c0.001,4.661,3.779,8.44,8.44,8.44s8.44-3.778,8.44-8.44V8.44 C17.442,3.778,13.665,0,9.003,0z"/> </g> </g> <g> <g> <path d="M502.997,495.12h-17.713c-7.573-8.483-32.127-38.775-43.564-86.259c-3.797-15.757-5.758-43.066-8.029-74.685 c-6.372-88.724-14.304-199.143-71.25-199.143c-56.946,0-64.876,110.419-71.25,199.142c-1.914,26.644-3.608,50.227-6.365,66.416 c-0.286-2.532-0.569-5.096-0.855-7.685c-3.053-27.637-6.514-58.96-15.686-84.283c-11.442-31.589-30.126-47.606-55.534-47.606 c-6.922,0-13.34,1.198-19.253,3.566c-7.628-68.07-22.827-129.55-65.319-129.55c-56.946,0-64.878,110.42-71.25,199.144 c-2.272,31.62-4.233,58.927-8.029,74.684c-7.594,31.527-21.074,55.578-31.457,70.63V135.738c0-4.662-3.779-8.44-8.44-8.44 s-8.44,3.778-8.44,8.44v367.821c0,0.082,0.01,0.163,0.012,0.245c0.006,0.189,0.01,0.378,0.028,0.566 c0.012,0.129,0.035,0.254,0.053,0.38c0.02,0.146,0.038,0.291,0.066,0.437c0.027,0.138,0.064,0.272,0.098,0.408 c0.033,0.131,0.062,0.262,0.101,0.392c0.04,0.135,0.09,0.266,0.137,0.397c0.045,0.128,0.088,0.257,0.14,0.383 s0.111,0.248,0.169,0.37c0.06,0.127,0.116,0.254,0.182,0.378c0.064,0.12,0.136,0.235,0.205,0.351 c0.071,0.119,0.14,0.24,0.217,0.357c0.083,0.125,0.174,0.243,0.264,0.363c0.074,0.1,0.145,0.203,0.225,0.3 c0.123,0.15,0.255,0.291,0.387,0.433c0.053,0.057,0.1,0.118,0.155,0.174c0.005,0.005,0.01,0.009,0.015,0.014 c0.197,0.198,0.402,0.386,0.618,0.564c0.07,0.057,0.143,0.106,0.214,0.16c0.147,0.114,0.294,0.23,0.448,0.333 c0.117,0.079,0.239,0.146,0.359,0.218c0.116,0.07,0.23,0.144,0.349,0.209c0.122,0.065,0.246,0.119,0.37,0.178 c0.126,0.06,0.249,0.124,0.378,0.178c0.115,0.047,0.232,0.084,0.348,0.127c0.144,0.053,0.286,0.109,0.433,0.154 c0.106,0.033,0.214,0.054,0.321,0.082c0.16,0.042,0.317,0.088,0.481,0.12c0.118,0.024,0.239,0.036,0.357,0.054 c0.2,0.032,0.402,0.06,0.607,0.077c0.225,0.019,0.449,0.033,0.674,0.034c0.01,0.001,0.019,0.002,0.028,0.002h84.561 c0.006,0,0.012,0.001,0.018,0.001c0.006,0,0.01-0.001,0.016-0.001h409.4c4.661,0,8.44-3.778,8.44-8.44 C511.437,498.897,507.659,495.12,502.997,495.12z M90.927,495.12H27.084c11.695-15.649,28.91-43.631,38.227-82.306 c4.122-17.112,6.129-45.064,8.454-77.429c5.247-73.062,13.178-183.473,54.415-183.473c30.769,0,42.993,61.475,49.398,123.036 c-8.288,7.898-15.093,19.132-20.361,33.675c-9.172,25.324-12.633,56.647-15.686,84.283c-2.144,19.403-4.169,37.73-7.767,47.442 C122.57,470.558,97.95,490.031,90.927,495.12z M116.968,495.12c11.175-10.929,24.661-27.423,32.623-48.909 c4.32-11.658,6.357-30.099,8.716-51.453c2.95-26.698,6.292-56.957,14.78-80.388c2.06-5.688,4.311-10.674,6.769-14.993 c1.051,12.531,1.926,24.717,2.738,36.009c2.325,32.366,4.332,60.317,8.454,77.429c9.316,38.674,26.531,66.657,38.227,82.306 H116.968z M207.459,408.862c-3.796-15.757-5.757-43.065-8.029-74.684c-1.204-16.759-2.464-34.292-4.098-51.709 c5.162-3.07,10.937-4.573,17.418-4.573c18.047,0,30.651,11.59,39.665,36.475c8.487,23.43,11.83,53.69,14.78,80.388 c1.897,17.177,3.59,32.462,6.426,43.855c-9.317,23.093-20.802,39.987-28.326,49.623 C234.847,474.89,216.79,447.597,207.459,408.862z M261.345,495.12c6.134-8.206,13.774-19.806,21.01-34.563 c7.744,14.604,17.635,26.209,26.177,34.563H261.345z M334.576,495.12c-7.04-5.101-31.647-24.57-42.837-54.773 c-0.104-0.28-0.201-0.591-0.303-0.886c3.059-8.216,5.838-17.106,8.137-26.648c4.122-17.112,6.129-45.065,8.455-77.43 c5.247-73.062,13.178-183.472,54.414-183.472c41.236,0,49.167,110.411,54.415,183.472c2.325,32.366,4.333,60.318,8.455,77.43 c9.316,38.674,26.531,66.657,38.227,82.306H334.576z"/> </g> </g> </g>
</svg>