<!DOCTYPE svg PUBLIC "-//W3C//DTD SVG 1.1//EN" "http://www.w3.org/Graphics/SVG/1.1/DTD/svg11.dtd">
<!-- Uploaded to: SVG Repo, www.svgrepo.com, Transformed by: SVG Repo Mixer Tools -->
<svg fill="#000000" version="1.1" id="Layer_1" xmlns="http://www.w3.org/2000/svg" xmlns:xlink="http://www.w3.org/1999/xlink" width="100px" height="100px" viewBox="0 0 72 72" enable-background="new 0 0 72 72" xml:space="preserve" stroke="#000000" stroke-width="1.44">
<g id="SVGRepo_bgCarrier" stroke-width="0"/>
<g id="SVGRepo_tracerCarrier" stroke-linecap="round" stroke-linejoin="round"/>
<g id="SVGRepo_iconCarrier"> <g> <path d="M55.068,9H55V5c0-1.104-0.896-2-2-2s-2,0.896-2,2v4h-7V5c0-1.104-0.896-2-2-2s-2,0.896-2,2v4h-7V5c0-1.104-0.896-2-2-2 s-2,0.896-2,2v4h-7V5c0-1.104-0.896-2-2-2s-2,0.896-2,2v4h-1.068C13.104,9,10,12.104,10,15.932v46.136 C10,65.896,13.104,69,16.932,69h38.136C58.896,69,62,65.896,62,62.068V15.932C62,12.104,58.896,9,55.068,9z M16.932,13H18v5 c0,1.104,0.896,2,2,2s2-0.896,2-2v-5h7v5c0,1.104,0.896,2,2,2s2-0.896,2-2v-5h7v5c0,1.104,0.896,2,2,2s2-0.896,2-2v-5h7v5 c0,1.104,0.896,2,2,2s2-0.896,2-2v-5h0.068C56.688,13,58,14.313,58,15.932V26H14V15.932C14,14.313,15.313,13,16.932,13z M55.068,65 H16.932C15.313,65,14,63.688,14,62.068V28h44v34.068C58,63.688,56.688,65,55.068,65z"/> <path d="M54,51c-0.553,0-1,0.447-1,1v3.184C53,58.109,52.1,60,50.521,60H34.119c-0.553,0-1,0.447-1,1s0.447,1,1,1h16.402 C53.314,62,55,59.325,55,55.184V52C55,51.447,54.552,51,54,51z"/> <path d="M53.527,46.251c-0.18,0.179-0.289,0.438-0.289,0.699c0,0.271,0.109,0.528,0.289,0.711c0.19,0.188,0.451,0.289,0.711,0.289 c0.261,0,0.521-0.101,0.71-0.289c0.181-0.19,0.29-0.451,0.29-0.711c0-0.261-0.109-0.521-0.29-0.709 C54.568,45.87,53.909,45.88,53.527,46.251z"/> </g> </g>
</svg>