<?xml version="1.0" encoding="utf-8"?>
<!-- Generator: Adobe Illustrator 13.0.0, SVG Export Plug-In . SVG Version: 6.00 Build 14948)  -->
<!DOCTYPE svg PUBLIC "-//W3C//DTD SVG 1.1//EN" "http://www.w3.org/Graphics/SVG/1.1/DTD/svg11.dtd">
<svg version="1.1" id="Calque_2" xmlns="http://www.w3.org/2000/svg" xmlns:xlink="http://www.w3.org/1999/xlink" x="0px" y="0px"
	 width="454.877px" height="353.274px" viewBox="0 0 454.877 353.274" enable-background="new 0 0 454.877 353.274"
	 xml:space="preserve">
<g>
	<path d="M136.783,309.299c0.426,0.823,0.866,1.644,1.319,2.455c0-0.001-0.001-0.002-0.001-0.002
		c2.728,4.897,5.991,9.593,9.657,13.984c0.964,1.233,5.276,6.429,11.978,11.989c4.367,3.626,8.875,6.688,13.429,9.114
		c5.902,3.141,11.889,5.215,17.913,6.172c0.003,0.001,0.006,0.003,0.011,0.004c1.725,0.271,3.434,0.33,5.088,0.167
		c2.894-0.282,5.61-1.228,8.058-2.765c1.661,0.449,3.298,0.797,4.904,1.034c0.018,0.004,0.036,0.006,0.053,0.009
		c1.484,0.211,2.958,0.273,4.387,0.183c6.189-0.393,11.607-3.601,15.471-9.138c2.085-2.996,3.695-6.658,4.766-10.9
		c0.94-3.728,1.469-7.923,1.542-12.477c0.097-6.099-0.638-12.847-2.254-19.872c4.557-1.295,9.567-2.693,14.822-4.075
		c3.411,6.659,8.179,12.278,13.843,16.397c3.521,2.56,7.304,4.573,11.28,6.002c3.778,1.359,7.739,2.193,11.815,2.492
		c5.832,0.427,11.79-0.229,17.835-1.932c5.556-1.566,10.922-3.94,16.004-7.076c4.728-2.909,8.652-7.041,11.301-12.013
		c2.401-4.511,3.737-9.732,3.76-15.147c0.001-0.019,0.001-0.036,0.002-0.055c8.538,1.602,13.564,5.363,14.812,6.389
		c1.982,2.699,7.315,9.931,12.158,13.876c5.194,4.176,13.882,10.096,21.76,13.032c1.197,0.443,2.438,0.828,3.684,1.147
		c4.842,1.233,9.875,1.475,15.055,0.739c4.723-0.674,9.478-2.156,14.181-4.407c15.854-7.644,30.136-23.266,36.97-42.586
		c0.066-0.192,0.129-0.389,0.182-0.587c2.789-10.31,3.113-20.475,0.648-30.283c-0.184-0.845-0.412-1.677-0.678-2.479
		c-2.384-7.857-6.683-15.15-12.422-21.032c-6.519-6.689-14.94-11.619-24.074-14.079c-3.943-1.063-8.015-1.668-12.073-1.791
		c-8.222-0.252-16.841,1.008-25.444,3.804c-2.136,0.693-4.018,1.403-5.594,2.047c-5.587-1.166-9.893-2.354-13.183-3.47
		c7.856-6.716,13.059-14.947,14.413-23.841c0.775-5.104,0.259-10.209-1.623-15.18c-1.992-5.263-5.425-10.136-10.24-14.426
		c-0.024-0.021-0.049-0.042-0.073-0.063c-6.62-5.823-14.117-10.788-22.196-14.67c-9.172-4.41-18.631-7.187-27.901-8.212
		c-5.572-0.619-11.046-0.592-16.22,0.07c-2.385,0.306-4.711,0.746-6.961,1.316c-5.286-4.286-11.447-8.54-18.6-12.732
		c0.887-1.046,1.759-2.164,2.585-3.347c5.647-8.08,8.646-15.164,8.859-21.795c0.123-3.799-0.698-7.438-2.481-10.811
		c-1.886-3.57-4.854-6.861-8.846-9.74c0.004,0.002,0.007,0.004,0.01,0.007c-6.397-4.623-13.889-8.32-22.206-10.88
		c-9.085-2.799-18.642-4.075-28.25-3.756c-6.583,0.216-13.076,1.192-19.244,2.88c-6.26,1.711-12.192,4.157-17.599,7.235
		c-2.835,1.505-14.122,8.182-21.259,19.708c-10.493-0.023-20.945,0.878-31.124,2.655c-3.293,0.574-6.612,1.25-9.86,2.007
		c0.1-0.023,0.194-0.051,0.292-0.073c-22.34,4.909-44.663,14.991-62.469,27.745c-9.698,7.043-17.457,14.14-17.456,14.136
		c-1.698,1.561-3.358,3.151-4.971,4.762c-0.08,0.076-0.157,0.154-0.233,0.232c-9.059,9.087-16.68,18.853-22.659,28.911
		c-0.005,0.008-0.01,0.016-0.015,0.024c-0.005,0.009-0.011,0.019-0.016,0.027c0.006-0.009,0.012-0.02,0.019-0.03
		c-0.845,1.421-1.678,2.882-2.47,4.343c-0.009,0.018-0.019,0.036-0.028,0.053c0.028-0.054,0.058-0.107,0.088-0.16
		c-0.027,0.05-0.056,0.101-0.083,0.151c-0.018,0.032-0.034,0.064-0.052,0.096c-0.045,0.086-0.088,0.172-0.13,0.257
		c0.038-0.079,0.078-0.159,0.12-0.238c-4.606,8.515-7.758,16.878-8.936,23.055c-0.362,1.347-0.778,3.229-1.226,5.603
		c-0.192,1.016-0.345,1.891-0.44,2.445c-0.055,0.322-0.098,0.583-0.128,0.764c-0.018,0.107-0.031,0.191-0.04,0.247
		c-0.211,1.352-0.072,2.626,0.349,3.79c-0.057-0.158-0.126-0.311-0.172-0.474c0.055,0.192,0.138,0.375,0.198,0.566
		c0.012,0.032,0.021,0.064,0.034,0.097c0.967,3.002,2.535,5.771,4.704,8.256c-0.23,1.341-0.283,2.732-0.162,4.16
		c0.371,4.391,2.363,9.204,5.823,14.361c3.487,5.201,8.275,10.473,14.119,15.756c6.486,5.865,14.109,11.584,22.537,17.117
		c9.092,5.967,19.114,11.705,29.705,17.201c0.136,0.092,0.273,0.18,0.414,0.266c6.971,4.258,13.487,7.668,19.459,10.086
		c0.381,0.153,0.761,0.308,1.141,0.463c7.36,3.025,15.617,6.509,28.256,10.572h0c1.891,0.621,3.758,1.204,5.552,1.738
		c0.012,0.004,0.024,0.008,0.036,0.01c0.139,0.041,0.277,0.08,0.416,0.119c0.008,0.002,0.016,0.003,0.023,0.005
		c-0.018-0.005-0.034-0.01-0.034-0.01s0.001,0,0.003,0.002c0.016,0.003,0.031,0.008,0.047,0.013
		c0.003,0.001,0.007,0.002,0.011,0.002c1.108,0.328,2.242,0.461,3.345,0.496C136.196,308.126,136.49,308.712,136.783,309.299z"/>
	<path fill="#140000" d="M268.789,303.101c13.711,10.055,30.604,7.187,43.647-0.863c5.999-3.736,9.496-10.546,9.291-18.496
		c0.001-0.001,0.001-0.001,0.002-0.002c0.012-3.798-0.901-7.195-2.618-10.996c3.176-0.16,4.89-0.314,7.967-0.213
		c19.585,0.425,30.676,10.536,31.177,11.422c0.028-0.002,6,8.691,10.392,12.311c4.463,3.605,12.102,8.785,18.364,11.126
		c18.787,6.986,43.534-10.731,53.046-38.707c2.331-9.546,2.196-18.533-0.011-26.616c-0.144-0.626-0.319-1.235-0.529-1.822
		c-4.877-15.589-18.248-27.372-34.413-27.853c-15.496-0.488-29.035,6.607-28.997,6.61c0.006,0,0.025-0.021,0.023-0.021
		c-30.675-5.262-37.512-13.657-38.166-14.858c-0.017-0.028-0.037-0.062-0.058-0.103c0.051-0.019,0.093-0.038,0,0l0,0
		c2.778-1.377,5.598-2.93,7.772-4.713c0.001-0.003,0.001-0.005,0.002-0.008c16.436-11.956,18.945-30.484,5.164-42.592
		c-16.53-14.453-42.288-23.949-61.589-15.514c-0.69,0.301-1.339,0.616-1.969,0.948c-0.617,0.323-1.213,0.665-1.796,1.016
		c-10.77-10.868-25.781-19.443-36.838-24.774c-0.001-0.003,5.551-4.028,9.53-9.964c9.033-13.432,9.662-23.757-0.292-30.759
		c-15.884-11.328-42.488-15.792-64.139-3.579c-0.012-0.05-15.612,7.949-20.346,23.216c-17.729-1.496-34.402-0.007-49.534,3.467
		c0-0.003-0.001-0.004-0.002-0.006c-23.008,4.992-43.741,15.604-58.236,26.549c0.009,0.007,0.019,0.014,0.027,0.021
		c-0.645,0.47-1.282,0.943-1.912,1.419c-0.12,0.089-0.238,0.181-0.357,0.271c-0.751,0.57-1.493,1.143-2.224,1.718
		c-0.095,0.074-0.189,0.149-0.283,0.226c-0.75,0.593-1.493,1.189-2.223,1.79c-0.057,0.047-0.114,0.096-0.171,0.144
		c-3.585,2.955-6.908,5.968-9.981,8.993c-0.011,0.01-0.02,0.018-0.031,0.029c-0.005,0.005-0.012,0.013-0.019,0.019
		c-9.236,9.103-16.174,18.29-21.185,26.503c-0.005,0.009-0.011,0.018-0.017,0.027c-0.83,1.36-1.605,2.693-2.333,3.995
		c-0.005,0.013-0.012,0.023-0.02,0.036c-4.949,8.885-7.574,16.333-8.513,21.003c-0.833,2.72-1.946,8.667-1.932,8.668
		c1.641,6.257,6.762,9.322,6.747,9.324c-9.08,6.519,9.519,36.108,64.105,63.729c-0.011,0.021-0.022,0.046-0.034,0.067
		c7.28,4.556,12.92,7.369,17.257,9.145c7.796,3.227,15.474,6.596,28.094,10.681c1.771,0.585,3.506,1.133,5.2,1.641
		c0.162,0.046,0.319,0.087,0.481,0.137c1.194,0.354,2.376,0.694,3.534,1.01c0.292,0.08,0.573,0.148,0.861,0.222
		c1.021,0.276,2.034,0.547,3.025,0.789c0.344,0.085,0.678,0.156,1.02,0.239c0.037,0.009,0.073,0.017,0.109,0.025
		c0.973,2.547,2.144,5.129,3.525,7.73c2.415,4.562,5.229,8.681,8.25,12.406c0.087,0.049,14.801,19.783,35.881,23.127
		c3.96,0.629,7.035-1.012,9.204-4.128c3.029,1.253,6.003,2.125,8.843,2.542c13.171,2.007,18.539-19.478,8.585-47.956
		c-0.104-0.256-0.224-0.496-0.329-0.75c9.115-2.574,22.566-6.586,36.83-9.995C255.62,282.177,257.798,295.08,268.789,303.101z"/>
	<g>
		<path fill="#940000" d="M199.058,293c-12.395-28.865-36.026-45.679-47.217-36.675c-11.769,9.327-14.847,29.538-3.455,50.581
			c11.373,21.068,29.964,33.596,44.131,35.533C205.803,344.251,210.226,322.056,199.058,293z"/>
	</g>
	<g>
		<path fill="#140000" d="M199.058,293c-5.211-11.831-12.02-21.526-19.204-28.362c3.353,4.885,6.452,10.377,9.129,16.457
			c11.25,29.377,6.702,51.718-6.989,49.82c-8.197-1.145-17.565-5.555-26.413-12.902c11.214,14.371,25.397,22.845,36.937,24.427
			C205.803,344.251,210.226,322.056,199.058,293z"/>
	</g>
	<path fill="#D50000" d="M417.138,262.267c12.585-26.537-15.089-44.439-23.632-48.942c-6.188,1.038-12.128,2.956-17.483,5.717
		c-33.729-5.671-38.16-14.797-38.117-15.023c-0.277-0.512,0.278,0.512,0,0c0.201-0.079-0.199,0.084,0,0
		c2.779-1.376,5.598-2.929,7.773-4.712c11.375-40.987-53.559-60.126-56.423-58.114c-1.364,0.593-2.561,1.238-3.765,1.963
		c-13.539-10.958-26.815-19.24-36.838-24.774c4.733-3.581,8.349-7.567,11.646-13.321c-14.67-23.082-51.3-27.546-74.674-25.258
		c-5.909,5.104-9.971,11.164-12.219,17.494c-52.699-4.361-93.743,16.804-119.003,39.089C28.64,158.981,18.66,183.276,16.392,193.5
		c-0.833,2.72-1.946,8.667-1.932,8.668c1.641,6.257,6.762,9.322,6.747,9.324c-10.215,7.444,13.932,41.833,81.429,72.372
		c28.136,13.13,48.514,17.757,64.29,18.726c0.399,0.908,0.792,1.813,1.24,2.726c5.316,10.793,12.901,19.396,20.755,25.45
		c4.582,0.372,43.268,5.787,30.229-37.867c-0.104-0.256-0.224-0.496-0.329-0.75c8.952-2.883,22.583-6.848,36.83-9.995
		c1.618,7.888,5.518,14.689,11.626,19.727c11.174-2.305,25.547-5.536,37.729-9.951c8.045-2.935,13.822-5.766,16.724-8.188
		c0.012-3.798-0.901-7.195-2.618-10.996c22.938-3.614,39.048,10.792,38.944,10.656c0.646,2.086,3.274,5.672,7.34,9.743
		C374.209,292.228,405.459,288.795,417.138,262.267z"/>
	<g>
		<g>
			<path fill="#A00000" d="M335.672,255.48c-18.158-1.565-60.261-0.217-120.234,22.665c-25.676,9.916-55.489,14.166-83.78,17.304
				c11.514,3.722,24.335,6.84,35.268,7.141c13.168-0.999,28.124-2.96,51.895-10.441c11.774-3.665,24.436-7.143,36.83-9.995
				c24.001-8.126,49.78-8.786,63.461-9.409c4.188-0.397,22.848-2.513,38.944,10.656c0.646,2.086,3.274,5.672,7.34,9.743
				c3.261-0.238,9.468-0.985,16.61-3.027c-15.053-16.854-32.891-32.092-39.84-33.643C340,256.092,337.835,255.764,335.672,255.48z"
				/>
			<path fill="#A00000" d="M393.506,213.325c-6.188,1.038-12.128,2.956-17.483,5.717c-33.729-5.671-38.16-14.797-38.117-15.023
				c-8.541-4.59-21.79-33.907-52.414-60.863c-9.648-8.455-21.322-17.133-36.838-24.774c-31.326-15.088-49.055-17.126-74.541-21.025
				c-0.752-0.11-2.923-0.17-3.667-0.27c-49.849-3.2-89.504,16.396-114.211,37.703c40.387-5.554,95.816-4.424,135.219,6.26
				c49.302,10.872,118.967,58.782,133.521,67.175c35.736,16.863,70.388,26.611,94.15,32.485
				C414.887,226.098,399.276,216.496,393.506,213.325z"/>
			<path fill="#A00000" d="M337.905,204.02C338.184,204.531,337.628,203.508,337.905,204.02L337.905,204.02z"/>
		</g>
		<g>
			<path fill="#BA0000" d="M419.211,241.016c-0.027-0.103-0.054-0.206-0.086-0.307c-23.763-5.874-58.414-15.622-94.15-32.485
				c-14.553-8.393-84.219-56.303-133.521-67.175c-39.402-10.684-94.832-11.813-135.219-6.26c-2.746,2.354-5.328,4.735-7.756,7.126
				c-12.339,12.156-20.56,24.443-25.61,34.404c22.055-7.668,81.894-23.451,146.271-5.569
				c41.539,11.618,73.431,25.819,107.445,39.561c33.894,14.035,69.942,27.935,117.003,45.823c0.005,0.001,10.875,4.212,22.68,8.025
				c0.299-0.622,0.595-1.242,0.869-1.893C420.729,254.357,420.989,247.261,419.211,241.016z M318.639,242.984
				c-47.065-1.695-67.259,4.735-83.085,10.451c-15.796,6.115-27.244,11.278-56.076,16.728c-25.708,4.838-55.637,8.141-81.229,11.574
				c1.454,0.704,2.894,1.417,4.387,2.127c6.508,3.017,12.567,5.573,18.264,7.757c3.72,1.43,7.346,2.724,10.758,3.828
				c28.291-3.138,58.104-7.388,83.78-17.304c59.973-22.882,102.077-24.23,120.234-22.665c2.572,0.25,4.733,0.592,6.48,0.988
				c0.004,0,0.009,0.005,0.014,0.005c6.949,1.551,24.787,16.789,39.84,33.643c4.707-1.346,9.82-3.265,14.785-6.021
				c5.056-2.816,9.955-6.51,14.037-11.446C389.098,258.545,357.168,244.881,318.639,242.984z"/>
		</g>
		<path fill="#E00000" d="M259.465,235.827c18.679-2.48,34.689-2.156,47.171-0.91c-16.014-5.148-30.457-11.055-30.468-11.058
			c-49.602-22.082-109.471-28.633-155.101-27.231c-45.916,0.955-77.582,9.654-77.464,9.021c4.782,3.246,1.162,12.625,34.593,24.91
			c16.649,6.304,49.934,7.049,84.81,7.763C197.963,238.643,234.488,238.981,259.465,235.827z"/>
	</g>
	<path d="M95.475,173.943c1.405,10.009-3.99,19.455-12.521,21.41c-8.515,1.942-17.538-4.505-19.67-14.721
		c-2.146-10.207,4.054-20.184,13.299-21.922C85.835,156.965,94.057,163.942,95.475,173.943z"/>
	<g>
		<path fill="#FFFFFF" d="M150.88,197.292c-0.96-48.243-12.096-78.486-27.01-96.535c-23.327,5.04-43.739,15.609-58.236,26.549
			c18.208,12.51,48.018,40.804,43.967,76.078c-3.126,29.489-15.959,55.398-24.321,71.904c7.95,5.962,25.479,13.601,46.378,20.16
			C139.179,275.988,151.971,241.827,150.88,197.292z"/>
		<path fill="#FFFFFF" d="M285.491,143.156c-10.77-10.867-25.729-19.502-36.838-24.774c-0.625-0.362-32.223,33.171-53.341,53.693
			c-22.243,20.089-20.784,46.767-7.403,80.477c8.242,19.73,31.169,39.603,30.912,39.597c9.115-2.574,22.566-6.586,36.83-9.995
			C254.075,283.201,240.36,175.049,285.491,143.156z"/>
		<path fill="#FFFFFF" d="M337.905,204.02c-3.145,0.467-40.371,26.113-18.794,68.724c3.177-0.161,4.978-0.148,8.051-0.044
			c19.574,0.427,30.59,10.367,31.093,11.253c-4.678-13.322-5.828-26.441-1.418-39.586c4.006-12.371,19.428-25.555,19.293-25.386
			C343.59,213.431,337.87,204.229,337.905,204.02z"/>
	</g>
	<g>
		<g>
			<path fill="#CF0000" d="M210.181,253.453c5.492,25-15.985,43.768-28.708,50.005c-14.825,6.462-17.854,5.891-17.376-0.937
				c0.469-7.595-1.822-15.027-5.143-20.689c-3.241-5.915-7.504-10.043-9.109-16.933c-4.6-13.299,5.275-22.782,1.908-37.037
				c-1.027-6.17-3.442-9.324,10.842-8.262C174.701,221.047,203.016,228.291,210.181,253.453z"/>
		</g>
		<g>
			<path fill="#140000" d="M210.181,253.453c-7.165-25.162-35.48-32.405-47.586-33.853c-14.285-1.062-11.869,2.092-10.842,8.262
				c0.066,0.292,0.145,0.604,0.204,0.897c1.426-2.605,31.823,5.316,38.003,27.324c5.833,24.332-23.426,45.89-25.92,43.232
				c0.05,1.087,0.055,2.176,0.056,3.206c-0.476,6.829,2.546,7.396,17.255,0.787C194.195,297.213,215.672,278.456,210.181,253.453z"
				/>
		</g>
	</g>
	<path fill="#FFFFFF" d="M80.019,170.358c0.408,2.654-0.983,5.157-3.141,5.611c-2.157,0.455-4.301-1.324-4.754-3.99
		c-0.456-2.667,0.995-5.204,3.197-5.645C77.523,165.894,79.611,167.704,80.019,170.358z"/>
</g>
<path d="M193.267,5.255c-1.594-0.463-3.482-0.432-5.903,0.461c-4.128-3.353-8.5-5.472-13.797-3.097
	c-6.054-2.872-8.657-1.849-10.854-0.379c-1.379-0.479-9.918-4.798-16.042,0.014c-9.967-4.594-15.622,1.665-14.129,9.701
	c-3.183,2.589-6.428,5.113-3.509,12.97c-2.881,2.911-3.021,7.038-0.381,12.946c-2.678,4.539-1.658,8.686,1.306,12.623
	c-2.893,6.461,2.698,12.581,4.296,14.631c-0.48,4.156-0.039,8.37,7.132,12.95c-0.598,6.232,3.783,8.767,7.944,11.466
	c-6.233,1.345,15.586,5.385,42.187,12.366c9.153,2.403,9.848-8.59,30.415,0.198c23.858,4.042,17.424,14.987,26.286,18.46
	c28.07,10.998,48.024,20.623,43.084,15.101c4.954,0.263,9.986,0.788,13.165-4.606c8.494,0.51,11.329-2.638,13.382-6.284
	c2.498-0.721,10.618-2.386,12.078-9.312c4.71-1.443,7.972-4.2,8.472-9.445c5.612-3.227,7.923-6.648,7.302-10.699
	c6.981-4.635,5.837-8.586,4.788-12.549c5.929-5.625,5.033-14.013-5.733-16.155c-2.123-7.492-11.571-9.017-12.97-9.439
	c-0.914-2.48-2.419-4.84-9.004-6.074c-2.892-5.035-7.672-5.889-12.984-5.603c-4.168-6.244-9.026-3.905-13.701-3.94
	c-6.066-4.423-8.605-1.891-12.342-1.736c-6.892-3.968-10.247-1.294-14.962,1.147l-4.101-1.424
	c-13.302,2.95-23.198,14.544-27.402,20.792c0.271-7.526-0.909-22.719-9.934-32.924l-4.153-1.257
	c-2.384-4.749-3.526-8.884-11.437-9.725c-2.932-2.321-3.491-5.861-11.004-5.85c-2.495-1.783-4.459-4.443-7.5-5.328"/>
<path fill="#75A928" d="M161.638,26.976c24.656,24.892,37.858,42.838,43.874,56.421c-11.12,17.792-36.607,10.487-45.646,6.951
	c2.172-0.265,4.089-0.805,5.172-2.241c-1.778-2.394-10.454-3.588-15.133-8.663c2.347,0.257,3.52,0.148,5.075-1.14
	c-4.848-3.481-10.188-6.861-12.687-10.831c1.842,0.624,3.44,1.575,6.397,0.685c-3.994-4.184-8.49-7.93-11.208-13.225
	c2.523,0.752,5.21,1.666,6.295,1c-3.54-4.187-6.288-8.456-8.299-12.803c3.367,1.562,4.965,1.679,6.012,1.344
	c-2.236-4.523-5.535-8.797-6.184-13.683c2.31,1.741,4.579,2.857,6.724,2.097c-0.305-2.937-4.689-6.039-5.548-12.954
	c2.652,1.155,5.449,2.43,6.226,2.022c0.412-5.594-0.823-9.215-1.983-12.927c5.891,1.819,14.737,4.813,14.497,4.188l-2.424-4.881
	c6.229,0.319,11.506,4.012,15.328,6.723c2.399-0.887,1.075-3.424-0.623-6.127c4.655,2.232,8.688,4.779,12.164,7.612
	c2.745-1.229-0.134-4.284-1.205-6.752c7.055,3.87,9.588,6.908,12.102,9.942c3.013-1.454,1.455-4.028,0.527-6.448
	c4.989,3.94,7.028,7.602,9.23,11.276c1.5-1.068,3.441-1.578,2.605-5.601c3.27,3.628,5.414,7.347,6.661,11.139
	c3.006-0.777,2.704-3.272,3.365-5.267c3.079,4.762,4.557,9.245,6.656,13.837c0.812-0.266,1.908-1.694,3.245-4.086
	c6.833,12.923,13.011,41.891-10.586,44.913c-12.743-20.014-30.144-37.207-50.641-52.521L161.638,26.976 M318.78,78.034
	c-34.573,5.649-55.803,12.402-68.653,19.859c-1.46,20.931,23.451,30.001,32.841,32.453c-1.601-1.491-2.832-3.056-2.867-4.851
	c2.849-0.893,10.568,3.241,17.335,1.884c-2.051-1.169-2.934-1.948-3.436-3.904c5.97,0.032,12.275,0.438,16.629-1.306
	c-1.855-0.578-3.709-0.748-5.579-3.206c5.69-1.037,11.534-1.426,16.843-4.112c-2.483-0.874-5.195-1.715-5.681-2.89
	c5.324-1.306,10.058-3.146,14.239-5.479c-3.644-0.717-5.004-1.563-5.652-2.446c4.466-2.345,9.649-3.865,13.044-7.438
	c-2.893,0.052-5.386-0.377-6.671-2.254c1.972-2.198,7.343-2.128,12.102-7.219c-2.826-0.624-5.839-1.237-6.225-2.022
	c2.956-4.768,6.083-6.971,9.204-9.292c-5.832-1.991-14.751-4.769-14.188-5.133l4.829-2.526c-5.228-3.402-11.667-3.516-16.354-3.57
	c-1.42-2.126,1.142-3.402,4.104-4.59c-5.075-0.932-9.836-1.243-14.312-0.992c-1.501-2.608,2.624-3.388,4.942-4.753
	c-7.982-1.019-11.817-0.047-15.638,0.929c-1.58-2.948,1.195-4.115,3.365-5.527c-6.351,0.258-10.152,2.019-14.096,3.697
	c-0.585-1.746-1.855-3.3,1.186-6.062c-4.778,1.012-8.697,2.761-11.937,5.095c-1.975-2.395-0.262-4.235,0.374-6.238
	c-5.291,2.043-9.12,4.8-13.519,7.282c-0.498-0.691-0.546-2.492-0.225-5.214c-13.123,6.439-35.146,26.245-17.833,42.558
	c22.064-8.709,46.245-12.388,71.829-12.73L318.78,78.034"/>
</svg>
