<?xml version="1.0" encoding="utf-8"?>
<!-- Generator: Adobe Illustrator 13.0.0, SVG Export Plug-In . SVG Version: 6.00 Build 14948)  -->
<!DOCTYPE svg PUBLIC "-//W3C//DTD SVG 1.1//EN" "http://www.w3.org/Graphics/SVG/1.1/DTD/svg11.dtd">
<svg version="1.1" id="Layer_1" xmlns="http://www.w3.org/2000/svg" xmlns:xlink="http://www.w3.org/1999/xlink" x="0px" y="0px"
	 width="1114.355px" height="950.486px" viewBox="0 0 1114.355 950.486" enable-background="new 0 0 1114.355 950.486"
	 xml:space="preserve">
<g>
	<path fill="#EE3424" d="M1108.227,894.859c7.06,7.859,7.06,38.469,0,46.328c-18.236,9.393-93.572,9.11-112.914,0
		c-7.06-7.859-7.06-38.469,0-46.328C1015.014,885.626,1089.807,886.847,1108.227,894.859z"/>
	<path fill="none" stroke="#FFFFFF" stroke-linecap="square" stroke-miterlimit="10" d="M1108.227,894.859
		c7.06,7.859,7.06,38.469,0,46.328c-18.236,9.393-93.572,9.11-112.914,0c-7.06-7.859-7.06-38.469,0-46.328
		C1015.014,885.626,1089.807,886.847,1108.227,894.859z"/>
	<g enable-background="new    ">
		<path fill="#FFFFFF" d="M1031.294,926.055c0,2.484-0.62,4.717-1.858,6.696c-1.239,1.98-3.052,3.53-5.439,4.651
			c-2.387,1.12-5.218,1.681-8.49,1.681c-3.925,0-7.162-0.766-9.712-2.297c-1.809-1.103-3.278-2.573-4.408-4.413
			c-1.131-1.84-1.695-3.629-1.695-5.365c0-1.009,0.339-1.873,1.018-2.592c0.678-0.719,1.541-1.079,2.59-1.079
			c0.851,0,1.569,0.28,2.157,0.841c0.587,0.561,1.089,1.392,1.505,2.493c0.507,1.308,1.054,2.4,1.642,3.278s1.415,1.602,2.482,2.172
			c1.066,0.569,2.469,0.854,4.204,0.854c2.388,0,4.327-0.574,5.819-1.724c1.492-1.148,2.238-2.582,2.238-4.301
			c0-1.363-0.403-2.47-1.207-3.32c-0.806-0.85-1.845-1.499-3.12-1.947s-2.979-0.925-5.113-1.429
			c-2.858-0.69-5.249-1.499-7.176-2.424c-1.926-0.924-3.454-2.186-4.584-3.782c-1.131-1.597-1.695-3.581-1.695-5.954
			c0-2.26,0.597-4.268,1.79-6.023s2.921-3.105,5.182-4.049c2.26-0.943,4.919-1.415,7.976-1.415c2.441,0,4.553,0.313,6.334,0.938
			c1.781,0.626,3.26,1.457,4.436,2.494c1.175,1.036,2.034,2.125,2.577,3.264c0.542,1.14,0.813,2.251,0.813,3.334
			c0,0.99-0.339,1.883-1.018,2.676c-0.678,0.794-1.523,1.191-2.536,1.191c-0.923,0-1.623-0.238-2.103-0.715s-0.999-1.256-1.56-2.34
			c-0.724-1.55-1.592-2.76-2.604-3.628c-1.013-0.869-2.641-1.303-4.883-1.303c-2.08,0-3.757,0.472-5.032,1.415
			c-1.274,0.943-1.912,2.078-1.912,3.404c0,0.821,0.217,1.531,0.65,2.129c0.435,0.598,1.031,1.111,1.791,1.541
			s1.527,0.767,2.306,1.009c0.777,0.243,2.062,0.598,3.852,1.064c2.243,0.542,4.273,1.14,6.091,1.793
			c1.817,0.654,3.363,1.448,4.639,2.382c1.274,0.935,2.27,2.115,2.983,3.545C1030.937,922.23,1031.294,923.981,1031.294,926.055z"/>
		<path fill="#FFFFFF" d="M1053.564,922.385h-7.378v11.627c0,1.663-0.38,2.924-1.14,3.782c-0.76,0.859-1.719,1.289-2.875,1.289
			c-1.212,0-2.188-0.425-2.931-1.274c-0.741-0.85-1.111-2.097-1.111-3.74v-31.661c0-1.83,0.406-3.138,1.221-3.923
			c0.813-0.784,2.106-1.177,3.879-1.177h10.335c3.057,0,5.408,0.243,7.054,0.729c1.628,0.468,3.033,1.243,4.218,2.326
			s2.085,2.409,2.699,3.979c0.615,1.568,0.923,3.334,0.923,5.295c0,4.185-1.248,7.355-3.744,9.513
			C1062.219,921.306,1058.502,922.385,1053.564,922.385z M1051.611,903.556h-5.425v12.553h5.425c1.899,0,3.486-0.205,4.762-0.616
			c1.274-0.411,2.246-1.083,2.916-2.018c0.669-0.934,1.004-2.157,1.004-3.671c0-1.812-0.516-3.287-1.547-4.427
			C1057.589,904.163,1055.21,903.556,1051.611,903.556z"/>
		<path fill="#FFFFFF" d="M1084.057,934.012v-13.028l-9.712-15.55c-0.85-1.401-1.451-2.494-1.804-3.278
			c-0.353-0.785-0.529-1.467-0.529-2.046c0-0.952,0.357-1.774,1.072-2.465c0.714-0.691,1.596-1.037,2.645-1.037
			c1.103,0,1.939,0.322,2.51,0.967c0.569,0.645,1.424,1.929,2.563,3.853l7.433,12.468l7.515-12.468
			c0.451-0.766,0.831-1.41,1.139-1.934c0.308-0.522,0.646-1.013,1.018-1.471c0.37-0.458,0.782-0.808,1.234-1.051
			c0.452-0.242,1.004-0.364,1.654-0.364c1.013,0,1.858,0.341,2.537,1.022c0.678,0.683,1.017,1.472,1.017,2.368
			c0,0.729-0.172,1.457-0.515,2.185c-0.344,0.729-0.932,1.737-1.764,3.026l-9.956,15.774v13.028c0,1.7-0.38,2.97-1.139,3.811
			c-0.76,0.841-1.728,1.261-2.903,1.261c-1.193,0-2.161-0.416-2.902-1.246C1084.427,937.006,1084.057,935.73,1084.057,934.012z"/>
	</g>
	<g enable-background="new    ">
		<path fill="#010101" d="M821.57,918.021h-2.633v11.922c0,1.57-0.346,2.726-1.037,3.469c-0.692,0.742-1.595,1.113-2.709,1.113
			c-1.197,0-2.126-0.389-2.784-1.164c-0.657-0.776-0.987-1.915-0.987-3.418v-28.552c0-1.62,0.363-2.793,1.089-3.519
			s1.898-1.089,3.519-1.089h12.226c1.688,0,3.13,0.072,4.329,0.216c1.197,0.144,2.277,0.435,3.239,0.873
			c1.165,0.489,2.194,1.189,3.089,2.101c0.894,0.911,1.572,1.971,2.037,3.177c0.464,1.207,0.696,2.485,0.696,3.835
			c0,2.768-0.78,4.979-2.342,6.632c-1.562,1.654-3.928,2.827-7.101,3.519c1.334,0.709,2.607,1.755,3.822,3.139
			c1.216,1.384,2.3,2.856,3.254,4.417c0.953,1.562,1.695,2.971,2.227,4.228s0.798,2.122,0.798,2.595
			c0,0.489-0.156,0.974-0.469,1.455c-0.312,0.48-0.738,0.86-1.278,1.139s-1.164,0.418-1.873,0.418c-0.844,0-1.553-0.198-2.126-0.595
			s-1.067-0.898-1.481-1.506c-0.413-0.607-0.975-1.502-1.683-2.684l-3.013-5.012c-1.08-1.839-2.046-3.24-2.898-4.202
			c-0.852-0.962-1.717-1.62-2.594-1.975C824.009,918.199,822.903,918.021,821.57,918.021z M825.873,902.429h-6.936v10.201h6.734
			c1.805,0,3.324-0.155,4.556-0.468s2.173-0.844,2.822-1.595s0.975-1.785,0.975-3.101c0-1.029-0.262-1.937-0.784-2.722
			c-0.523-0.784-1.25-1.371-2.178-1.759C830.186,902.615,828.455,902.429,825.873,902.429z"/>
	</g>
	<g enable-background="new    ">
		<path fill="#010101" d="M866.319,922.173h-13.517c0.016,1.569,0.332,2.953,0.949,4.151c0.615,1.198,1.434,2.101,2.455,2.708
			c1.021,0.607,2.146,0.911,3.379,0.911c0.826,0,1.582-0.097,2.266-0.291c0.684-0.193,1.346-0.497,1.986-0.911
			c0.642-0.413,1.232-0.856,1.772-1.329c0.54-0.472,1.24-1.113,2.101-1.923c0.354-0.304,0.861-0.456,1.52-0.456
			c0.709,0,1.281,0.194,1.721,0.582c0.439,0.389,0.658,0.937,0.658,1.646c0,0.624-0.244,1.354-0.734,2.189
			c-0.489,0.835-1.228,1.637-2.215,2.404c-0.986,0.769-2.227,1.405-3.721,1.911c-1.493,0.507-3.211,0.76-5.15,0.76
			c-4.439,0-7.89-1.266-10.354-3.797s-3.695-5.965-3.695-10.302c0-2.042,0.304-3.937,0.911-5.683
			c0.607-1.747,1.493-3.244,2.657-4.493c1.165-1.249,2.6-2.206,4.304-2.873s3.595-1,5.67-1c2.7,0,5.016,0.569,6.948,1.709
			c1.932,1.139,3.379,2.611,4.342,4.417c0.961,1.806,1.442,3.645,1.442,5.518c0,1.738-0.498,2.865-1.493,3.379
			C869.525,921.916,868.125,922.173,866.319,922.173z M852.803,918.249h12.529c-0.169-2.362-0.807-4.13-1.911-5.303
			c-1.105-1.173-2.562-1.759-4.366-1.759c-1.722,0-3.135,0.595-4.24,1.784S853.039,915.921,852.803,918.249z"/>
		<path fill="#010101" d="M897.125,922.173h-13.518c0.017,1.569,0.333,2.953,0.949,4.151c0.615,1.198,1.434,2.101,2.455,2.708
			s2.147,0.911,3.379,0.911c0.827,0,1.582-0.097,2.266-0.291c0.684-0.193,1.346-0.497,1.987-0.911
			c0.642-0.413,1.231-0.856,1.772-1.329c0.539-0.472,1.24-1.113,2.101-1.923c0.354-0.304,0.86-0.456,1.519-0.456
			c0.709,0,1.282,0.194,1.721,0.582c0.439,0.389,0.658,0.937,0.658,1.646c0,0.624-0.244,1.354-0.733,2.189s-1.228,1.637-2.215,2.404
			c-0.987,0.769-2.228,1.405-3.722,1.911c-1.492,0.507-3.21,0.76-5.15,0.76c-4.438,0-7.889-1.266-10.354-3.797
			c-2.463-2.531-3.695-5.965-3.695-10.302c0-2.042,0.305-3.937,0.912-5.683c0.607-1.747,1.492-3.244,2.657-4.493
			s2.599-2.206,4.304-2.873c1.703-0.667,3.594-1,5.67-1c2.699,0,5.016,0.569,6.947,1.709c1.933,1.139,3.38,2.611,4.342,4.417
			s1.443,3.645,1.443,5.518c0,1.738-0.498,2.865-1.494,3.379C900.33,921.916,898.93,922.173,897.125,922.173z M883.607,918.249
			h12.529c-0.168-2.362-0.806-4.13-1.91-5.303c-1.105-1.173-2.562-1.759-4.367-1.759c-1.721,0-3.135,0.595-4.24,1.784
			S883.844,915.921,883.607,918.249z"/>
		<path fill="#010101" d="M908.084,907.036h1.646v-2.076c0-2.159,0.273-3.876,0.822-5.15c0.548-1.274,1.477-2.202,2.784-2.784
			c1.308-0.583,3.101-0.874,5.379-0.874c4.032,0,6.05,0.987,6.05,2.962c0,0.642-0.211,1.189-0.633,1.646
			c-0.422,0.455-0.92,0.684-1.494,0.684c-0.27,0-0.733-0.051-1.392-0.152s-1.216-0.151-1.671-0.151
			c-1.249,0-2.051,0.366-2.404,1.101c-0.354,0.734-0.531,1.784-0.531,3.151v1.646h1.695c2.633,0,3.949,0.793,3.949,2.379
			c0,1.131-0.351,1.849-1.051,2.152c-0.701,0.304-1.667,0.455-2.898,0.455h-1.695v18.301c0,1.367-0.326,2.409-0.975,3.126
			c-0.65,0.718-1.49,1.076-2.52,1.076c-0.979,0-1.793-0.358-2.442-1.076c-0.649-0.717-0.974-1.759-0.974-3.126v-18.301h-1.898
			c-1.03,0-1.823-0.231-2.38-0.696c-0.558-0.464-0.835-1.066-0.835-1.81C904.617,907.863,905.772,907.036,908.084,907.036z"/>
	</g>
	<g>
		<g>
			<defs>
				<rect id="SVGID_1_" x="930.555" y="891.512" width="55.035" height="52.496"/>
			</defs>
			<clipPath id="SVGID_2_">
				<use xlink:href="#SVGID_1_"  overflow="visible"/>
			</clipPath>
			<g clip-path="url(#SVGID_2_)">
				<g>
					<path fill="#FFFFFF" d="M985.406,891.512c-18.284,0-36.568,0-54.854,0c0,17.499,0,34.997,0,52.496c18.346,0,36.69,0,55.036,0
						c0-17.324,0-34.646,0-51.971C985.605,891.788,985.62,891.541,985.406,891.512z M975.684,892.212
						c-0.688,1.676-1.332,3.396-2.201,4.899c6.959,5.383,12.381,13.312,11.558,25.022c-0.362,5.154-2.142,9.606-4.953,13.299
						c-2.494,3.274-6.675,6.801-10.823,7.699c-3.383,0.732-7.303,0.351-11.189,0.351c-3.85,0-8.236,0.188-11.191-0.524
						c-8.824-2.129-15.104-10.72-15.775-20.299c-0.803-11.403,4.57-19.99,11.74-25.724c-0.596-1.604-1.937-3.386-2.019-4.898
						C952.137,892.391,964.085,892.134,975.684,892.212z"/>
					<path d="M940.827,892.037c0.082,1.514,1.423,3.296,2.019,4.898c-7.17,5.732-12.543,14.319-11.74,25.724
						c0.672,9.579,6.951,18.17,15.775,20.299c2.955,0.712,7.342,0.524,11.191,0.524c3.888,0,7.808,0.383,11.189-0.351
						c4.148-0.898,8.329-4.425,10.823-7.699c2.812-3.691,4.591-8.145,4.953-13.299c0.823-11.712-4.599-19.641-11.558-25.022
						c0.869-1.504,1.514-3.225,2.201-4.899C964.085,892.134,952.137,892.391,940.827,892.037z M976.417,904.985
						c-6.788-5.726-16.817,0.719-25.685,0.699c-3.58-0.008-6.57-1.018-9.723-2.1c1.006-2.016,3.137-2.958,4.403-4.725
						c-0.647-1.31-1.257-2.651-1.835-4.025c9.723,0,19.445,0,29.169,0c-0.079,1.229-1.151,2.969-1.651,4.375
						C973.146,900.756,975.512,902.933,976.417,904.985z M952.936,908.835c7.6,0.083,15.27-5.062,24.582-2.449
						c7.114,12.326,1.969,29.6-9.906,32.547c-2.024,0.503-5.891,0.49-9.354,0.525c-3.063,0.03-6.771,0.164-9.173-0.351
						c-3.716-0.794-7.048-3.622-9.355-6.649c-5.844-7.66-5.336-21.281,0.916-28.521
						C944.049,905.467,948.062,908.782,952.936,908.835z"/>
					<path fill="#FFFFFF" d="M940.645,903.936c-6.252,7.241-6.761,20.862-0.918,28.522c2.31,3.027,5.642,5.854,9.356,6.649
						c2.401,0.515,6.108,0.381,9.173,0.351c3.465-0.035,7.33-0.022,9.355-0.525c11.875-2.947,17.021-20.221,9.906-32.547
						c-9.313-2.614-16.983,2.532-24.582,2.449C948.062,908.782,944.049,905.467,940.645,903.936z M978.436,911.811
						c-0.101,3.269-5.041,2.684-4.953-0.176c0.045-1.439,1.056-2.606,3.119-2.1C977.898,909.854,978.471,910.645,978.436,911.811z
						 M967.611,915.135c-2.92,0.035-3.332-5.42,0.551-4.55C970.996,911.221,970.189,915.104,967.611,915.135z M960.273,915.135
						c-0.059-0.235-0.263-0.334-0.185-0.7c2.831,1.733,4.213,4.849,8.072,5.601c-0.625,2.992-4.633,4.57-5.871,7.35
						c-0.685,1.536-0.283,3.524-1.284,4.899c-0.865,1.188-2.261,1.682-4.036,2.1c-0.732-0.768-0.106-1.996-0.183-3.148
						c-3.294,1.961-5.604-1.631-6.788-3.851c-1.522,1.405-3.174,2.689-5.504,3.325c1.124-3.328-0.077-6.443-1.468-8.05
						c-0.435-0.502-1.325-0.988-1.102-1.575c3.904-0.457,5.462,1.323,7.521,2.625c1.129-6.314-1.59-9.877-5.137-12.249
						c3.25,0.225,5.979,0.947,8.807,1.575c-0.446-0.742-1.437-0.965-1.835-1.75C954.77,911.985,958.072,913.793,960.273,915.135z
						 M974.949,917.935c1.222,3.967-4.962,4.215-4.771,0.7c0.085-1.557,1.009-2.47,3.119-1.925
						C974.148,916.93,974.787,917.405,974.949,917.935z"/>
					<path d="M976.602,909.535c-2.063-0.508-3.074,0.659-3.119,2.1c-0.088,2.858,4.854,3.443,4.953,0.176
						C978.471,910.645,977.898,909.854,976.602,909.535z"/>
					<path d="M968.162,910.585c-3.883-0.87-3.471,4.585-0.551,4.55C970.189,915.104,970.996,911.221,968.162,910.585z"/>
					<path d="M951.284,911.285c0.399,0.785,1.389,1.008,1.835,1.75c-2.828-0.628-5.557-1.352-8.807-1.575
						c3.547,2.372,6.266,5.935,5.137,12.249c-2.061-1.302-3.617-3.082-7.521-2.625c-0.225,0.587,0.667,1.073,1.102,1.575
						c1.391,1.605,2.592,4.722,1.468,8.05c2.33-0.636,3.979-1.92,5.504-3.325c1.185,2.22,3.494,5.812,6.788,3.851
						c0.075,1.152-0.551,2.382,0.184,3.148c1.774-0.418,3.17-0.91,4.035-2.1c1.001-1.375,0.602-3.363,1.284-4.899
						c1.238-2.778,5.246-4.356,5.871-7.35c-3.858-0.752-5.241-3.866-8.072-5.601c-0.077,0.366,0.126,0.465,0.185,0.7
						C958.072,913.793,954.77,911.985,951.284,911.285z M955.137,914.435c1.485,2.894-0.481,6.185-0.367,8.75
						c0.106,2.354,1.489,3.28,3.119,5.074c-0.72,0.422-1.039,1.226-1.65,1.75c-2.743-1.535-5.078-3.793-4.953-7.523
						c0.041-1.23,0.797-2.477,0.917-3.676c0.256-2.545-0.808-3.926-1.65-5.773C951.938,913.637,953.695,913.885,955.137,914.435z
						 M959.723,916.01c1.25,2.175-0.494,4.515-0.184,6.824c0.296,2.19,3.336,3.168,1.285,4.375c-2.006-0.657-3.369-1.955-3.67-4.2
						c-0.275-2.055,0.673-3.597,0.551-5.074c-0.115-1.39-1.044-2.101-0.917-3.148C957.602,915.351,958.775,915.57,959.723,916.01z
						 M963.025,921.435c-1.847,0.186-1.76-3.103,0.184-2.449C964.654,919.471,964.22,921.315,963.025,921.435z"/>
					<path fill="#FFFFFF" d="M950.551,913.035c0.844,1.849,1.906,3.229,1.65,5.773c-0.12,1.199-0.876,2.444-0.917,3.676
						c-0.125,3.73,2.21,5.988,4.953,7.523c0.61-0.525,0.932-1.328,1.651-1.75c-1.631-1.794-3.014-2.72-3.119-5.074
						c-0.115-2.565,1.853-5.856,0.366-8.75C953.695,913.885,951.938,913.637,950.551,913.035z"/>
					<path fill="#FFFFFF" d="M956.788,914.785c-0.127,1.049,0.802,1.76,0.917,3.148c0.122,1.479-0.826,3.021-0.551,5.074
						c0.301,2.245,1.664,3.543,3.67,4.2c2.051-1.207-0.989-2.185-1.285-4.375c-0.311-2.312,1.434-4.649,0.184-6.824
						C958.775,915.57,957.602,915.351,956.788,914.785z"/>
					<path d="M973.299,916.71c-2.111-0.545-3.033,0.368-3.119,1.925c-0.191,3.515,5.991,3.267,4.771-0.7
						C974.787,917.405,974.148,916.93,973.299,916.71z"/>
					<path fill="#FFFFFF" d="M963.209,918.984c-1.941-0.652-2.029,2.635-0.184,2.449
						C964.22,921.315,964.654,919.471,963.209,918.984z M961.925,920.734C962.621,916.402,965.684,922.641,961.925,920.734
						L961.925,920.734z"/>
					<path d="M961.925,920.734C965.684,922.641,962.621,916.402,961.925,920.734L961.925,920.734z"/>
					<path fill="#FFFFFF" d="M971.097,899.211c0.5-1.406,1.572-3.146,1.651-4.375c-9.723,0-19.446,0-29.169,0
						c0.578,1.374,1.188,2.717,1.835,4.025c-1.268,1.767-3.396,2.709-4.403,4.725c3.151,1.082,6.143,2.092,9.724,2.1
						c8.865,0.02,18.896-6.425,25.684-0.699C975.512,902.933,973.146,900.756,971.097,899.211z"/>
				</g>
			</g>
		</g>
	</g>
</g>
<g>
	<g>
		<path d="M349.789,561.375c0.771,1.496,1.572,2.984,2.396,4.459c0-0.002-0.007-0.004-0.007-0.004
			c4.953,8.885,10.876,17.41,17.529,25.379c1.749,2.238,9.575,11.67,21.739,21.762c7.927,6.58,16.107,12.14,24.375,16.541
			c10.713,5.701,21.576,9.465,32.512,11.201c0.005,0.002,0.011,0.006,0.02,0.01c3.132,0.49,6.231,0.597,9.235,0.304
			c5.253-0.515,10.183-2.229,14.627-5.021c3.013,0.816,5.984,1.445,8.899,1.877c0.033,0.008,0.062,0.01,0.097,0.016
			c2.692,0.384,5.367,0.496,7.962,0.334c11.232-0.715,21.066-6.536,28.078-16.586c3.784-5.438,6.707-12.086,8.648-19.784
			c1.709-6.767,2.67-14.382,2.802-22.646c0.176-11.068-1.158-23.318-4.091-36.068c8.271-2.35,17.361-4.889,26.899-7.396
			c6.192,12.086,14.845,22.285,25.125,29.762c6.394,4.646,13.259,8.3,20.475,10.894c6.857,2.467,14.047,3.979,21.445,4.525
			c10.585,0.772,21.398-0.419,32.37-3.511c10.084-2.84,19.822-7.149,29.047-12.844c8.581-5.277,15.704-12.777,20.512-21.803
			c4.356-8.187,6.782-17.662,6.823-27.49c0.001-0.035,0.001-0.064,0.003-0.101c15.496,2.906,24.62,9.734,26.887,11.597
			c3.598,4.897,13.273,18.024,22.065,25.186c9.427,7.578,25.195,18.322,39.493,23.65c2.174,0.807,4.425,1.504,6.688,2.084
			c8.787,2.238,17.923,2.676,27.326,1.342c8.571-1.225,17.201-3.912,25.737-8c28.772-13.873,54.696-42.227,67.099-77.293
			c0.121-0.35,0.234-0.707,0.334-1.063c5.062-18.716,5.648-37.164,1.174-54.963c-0.332-1.535-0.747-3.046-1.229-4.5
			c-4.326-14.261-12.129-27.496-22.546-38.173c-11.834-12.141-27.116-21.09-43.695-25.553c-7.156-1.93-14.546-3.027-21.912-3.252
			c-14.922-0.457-30.565,1.83-46.179,6.906c-3.88,1.258-7.296,2.545-10.155,3.715c-10.141-2.115-17.955-4.271-23.927-6.295
			c14.258-12.191,23.701-27.131,26.16-43.273c1.405-9.265,0.47-18.529-2.946-27.549c-3.615-9.555-9.846-18.398-18.585-26.186
			c-0.043-0.036-0.091-0.076-0.134-0.112c-12.014-10.569-25.622-19.581-40.284-26.626c-16.646-8.005-33.814-13.045-50.642-14.905
			c-10.112-1.123-20.048-1.076-29.438,0.126c-4.332,0.557-8.551,1.354-12.636,2.39c-9.594-7.78-20.776-15.5-33.76-23.11
			c1.607-1.897,3.195-3.927,4.691-6.073c10.251-14.665,15.692-27.522,16.079-39.559c0.225-6.895-1.268-13.5-4.503-19.622
			c-3.424-6.479-8.811-12.451-16.057-17.678c0.008,0.004,0.014,0.008,0.02,0.013c-11.61-8.391-25.21-15.102-40.304-19.747
			c-16.491-5.08-33.834-7.396-51.272-6.817c-11.948,0.394-23.732,2.163-34.928,5.229c-11.363,3.104-22.13,7.544-31.943,13.131
			c-5.146,2.731-25.632,14.852-38.586,35.77c-19.043-0.041-38.016,1.595-56.489,4.82c-5.978,1.042-12.001,2.269-17.896,3.642
			c0.184-0.041,0.353-0.093,0.529-0.132c-40.547,8.909-81.062,27.208-113.381,50.356c-17.602,12.782-31.685,25.667-31.683,25.658
			c-3.083,2.833-6.097,5.718-9.022,8.642c-0.146,0.139-0.286,0.28-0.424,0.422c-16.44,16.493-30.273,34.218-41.125,52.473
			c-0.01,0.015-0.021,0.03-0.029,0.044c-0.007,0.017-0.018,0.034-0.027,0.05c0.012-0.018,0.021-0.036,0.034-0.055
			c-1.533,2.579-3.046,5.23-4.481,7.883c-0.02,0.031-0.036,0.065-0.053,0.096c0.053-0.098,0.104-0.193,0.161-0.291
			c-0.05,0.092-0.103,0.185-0.151,0.274c-0.033,0.059-0.062,0.117-0.095,0.174c-0.082,0.156-0.159,0.313-0.236,0.468
			c0.069-0.143,0.142-0.289,0.219-0.432c-8.36,15.454-14.082,30.633-16.221,41.844c-0.655,2.443-1.411,5.861-2.224,10.17
			c-0.35,1.842-0.626,3.432-0.799,4.436c-0.099,0.586-0.178,1.057-0.232,1.389c-0.032,0.193-0.056,0.346-0.072,0.449
			c-0.383,2.451-0.133,4.766,0.634,6.877c-0.103-0.287-0.229-0.564-0.313-0.859c0.101,0.348,0.252,0.68,0.36,1.025
			c0.021,0.057,0.037,0.115,0.062,0.178c1.756,5.447,4.601,10.475,8.539,14.984c-0.419,2.432-0.516,4.959-0.296,7.551
			c0.674,7.967,4.289,16.702,10.569,26.062c6.33,9.441,15.018,19.008,25.627,28.598c11.771,10.646,25.605,21.025,40.902,31.068
			c16.504,10.828,34.693,21.244,53.914,31.217c0.248,0.17,0.496,0.328,0.752,0.484c12.654,7.729,24.479,13.918,35.319,18.307
			c0.691,0.277,1.383,0.558,2.071,0.84c13.357,5.49,28.346,11.814,51.284,19.189l0,0c3.435,1.125,6.82,2.186,10.077,3.152
			c0.021,0.008,0.044,0.018,0.063,0.02c0.255,0.074,0.505,0.146,0.755,0.217c0.019,0.004,0.031,0.004,0.043,0.009
			c-0.032-0.009-0.061-0.021-0.061-0.021s0.001,0,0.004,0.008c0.031,0.004,0.057,0.013,0.085,0.021
			c0.005,0.002,0.013,0.004,0.021,0.004c2.012,0.594,4.068,0.836,6.072,0.9C348.725,559.248,349.257,560.312,349.789,561.375z"/>
		<path fill="#1B1112" d="M589.379,550.127c24.886,18.25,55.547,13.045,79.219-1.564c10.892-6.78,17.235-19.143,16.863-33.569
			c0.004-0.002,0.004-0.002,0.004-0.004c0.021-6.896-1.635-13.062-4.75-19.957c5.764-0.293,8.875-0.572,14.459-0.388
			c35.546,0.771,55.678,19.121,56.587,20.729c0.05-0.002,10.891,15.774,18.859,22.344c8.104,6.545,21.966,15.945,33.331,20.195
			c34.101,12.68,79.016-19.478,96.279-70.254c4.23-17.326,3.984-33.638-0.021-48.31c-0.26-1.137-0.579-2.239-0.958-3.307
			c-8.854-28.293-33.12-49.68-62.462-50.553c-28.124-0.887-52.698,11.99-52.628,11.996c0.011,0,0.044-0.039,0.042-0.037
			c-55.676-9.553-68.084-24.789-69.273-26.967c-0.028-0.051-0.064-0.113-0.104-0.188c0.093-0.033,0.169-0.07,0,0l0,0
			c5.042-2.5,10.16-5.316,14.105-8.553c0.001-0.008,0.001-0.012,0.004-0.016c29.831-21.701,34.386-55.328,9.372-77.305
			c-30-26.232-76.753-43.469-111.782-28.16c-1.252,0.548-2.432,1.118-3.573,1.722c-1.121,0.586-2.202,1.207-3.261,1.845
			c-19.547-19.726-46.793-35.29-66.86-44.966c-0.002-0.005,10.075-7.311,17.297-18.084c16.394-24.381,17.538-43.118-0.531-55.827
			c-28.829-20.562-77.114-28.662-116.411-6.496c-0.021-0.09-28.336,14.426-36.929,42.137c-32.178-2.716-62.438-0.012-89.903,6.293
			c0-0.006-0.003-0.008-0.004-0.011c-41.76,9.061-79.391,28.32-105.699,48.186c0.018,0.012,0.035,0.025,0.05,0.039
			c-1.172,0.853-2.328,1.71-3.47,2.576c-0.22,0.161-0.432,0.327-0.646,0.49c-1.367,1.035-2.714,2.076-4.039,3.118
			c-0.171,0.134-0.343,0.271-0.513,0.411c-1.361,1.075-2.708,2.157-4.035,3.248c-0.103,0.085-0.207,0.174-0.311,0.262
			c-6.507,5.363-12.538,10.833-18.115,16.322c-0.021,0.018-0.035,0.033-0.057,0.053c-0.007,0.009-0.021,0.023-0.035,0.033
			c-16.761,16.523-29.354,33.196-38.449,48.104c-0.012,0.018-0.021,0.033-0.032,0.05c-1.506,2.468-2.912,4.889-4.234,7.251
			c-0.008,0.024-0.021,0.04-0.035,0.065c-8.983,16.125-13.747,29.643-15.45,38.12c-1.515,4.938-3.532,15.729-3.508,15.734
			c2.979,11.355,12.273,16.918,12.245,16.924c-16.479,11.832,17.277,65.533,116.352,115.668c-0.021,0.039-0.041,0.082-0.062,0.123
			c13.213,8.268,23.449,13.373,31.32,16.596c14.15,5.857,28.085,11.973,50.99,19.387c3.217,1.062,6.363,2.057,9.438,2.979
			c0.295,0.082,0.579,0.157,0.875,0.248c2.164,0.645,4.312,1.26,6.412,1.831c0.531,0.146,1.041,0.271,1.563,0.404
			c1.854,0.5,3.691,0.992,5.489,1.433c0.624,0.155,1.231,0.282,1.852,0.434c0.067,0.019,0.134,0.031,0.197,0.047
			c1.767,4.623,3.893,9.31,6.398,14.029c4.384,8.278,9.49,15.756,14.975,22.516c0.156,0.093,26.863,35.908,65.123,41.978
			c7.188,1.141,12.77-1.836,16.704-7.494c5.499,2.275,10.896,3.856,16.052,4.615c23.904,3.643,33.648-35.353,15.582-87.041
			c-0.189-0.463-0.407-0.9-0.598-1.361c16.543-4.67,40.956-11.953,66.846-18.139C565.477,512.15,569.431,535.568,589.379,550.127z"
			/>
		<g>
			<path fill="#C61F4D" d="M462.816,531.795c-22.497-52.391-65.386-82.908-85.697-66.566c-21.361,16.929-26.948,53.613-6.272,91.806
				c20.645,38.237,54.388,60.977,80.101,64.492C475.059,624.814,483.087,584.529,462.816,531.795z"/>
		</g>
		<g>
			<path fill="#1B1112" d="M462.816,531.795c-9.458-21.475-21.815-39.07-34.854-51.479c6.086,8.864,11.71,18.834,16.568,29.868
				c20.419,53.318,12.164,93.869-12.686,90.427c-14.878-2.08-31.882-10.086-47.939-23.418
				c20.354,26.084,46.096,41.461,67.042,44.334C475.059,624.814,483.087,584.529,462.816,531.795z"/>
		</g>
		<path fill="#C51F4B" d="M858.632,476.014c22.843-48.164-27.386-80.656-42.891-88.83c-11.231,1.887-22.015,5.369-31.731,10.378
			c-61.219-10.292-69.261-26.856-69.184-27.266c-0.502-0.928,0.504,0.93,0,0c0.365-0.146-0.36,0.152,0,0
			c5.045-2.5,10.16-5.318,14.106-8.555c20.646-74.389-97.209-109.128-102.405-105.477c-2.478,1.078-4.648,2.248-6.836,3.565
			c-24.571-19.89-48.668-34.922-66.858-44.966c8.589-6.5,15.153-13.735,21.137-24.179c-26.626-41.894-93.109-49.995-135.532-45.844
			c-10.726,9.266-18.098,20.264-22.178,31.753c-95.647-7.916-170.145,30.498-215.99,70.946
			c-46.762,41.008-64.874,85.103-68.991,103.66c-1.51,4.938-3.53,15.73-3.507,15.734c2.978,11.355,12.272,16.918,12.246,16.924
			c-18.54,13.508,25.287,75.928,147.793,131.354c51.068,23.83,88.054,32.229,116.688,33.988c0.725,1.646,1.436,3.291,2.25,4.944
			c9.647,19.591,23.417,35.203,37.67,46.193c8.316,0.674,78.531,10.504,54.865-68.729c-0.188-0.464-0.405-0.898-0.595-1.361
			c16.244-5.232,40.987-12.428,66.846-18.139c2.935,14.315,10.016,26.659,21.1,35.805c20.282-4.185,46.369-10.049,68.479-18.062
			c14.602-5.326,25.087-10.466,30.354-14.859c0.021-6.896-1.636-13.062-4.752-19.959c41.632-6.562,70.872,19.588,70.683,19.342
			c1.174,3.785,5.942,10.295,13.323,17.682C780.717,530.393,837.436,524.162,858.632,476.014z"/>
		<path fill="#020202" d="M274.814,315.705c2.551,18.168-7.241,35.311-22.725,38.858c-15.456,3.527-31.832-8.176-35.703-26.719
			c-3.894-18.526,7.358-36.632,24.139-39.788C257.316,284.89,272.241,297.553,274.814,315.705z"/>
		<g>
			<path fill="#FFFFFF" d="M375.375,358.084c-1.743-87.561-21.955-142.453-49.023-175.21c-42.339,9.147-79.387,28.33-105.698,48.186
				c33.048,22.705,87.15,74.059,79.8,138.083c-5.672,53.521-28.965,100.546-44.142,130.503
				c14.428,10.822,46.245,24.687,84.177,36.593C354.136,500.918,377.354,438.916,375.375,358.084z"/>
			<path fill="#FFFFFF" d="M619.692,259.828c-19.548-19.724-46.698-35.396-66.859-44.966c-1.134-0.657-58.485,60.206-96.815,97.453
				c-40.369,36.462-37.721,84.882-13.436,146.066c14.96,35.812,56.571,71.881,56.105,71.867
				c16.543-4.67,40.957-11.953,66.847-18.139C562.674,514.01,537.781,317.713,619.692,259.828z"/>
			<path fill="#FFFFFF" d="M714.824,370.295c-5.708,0.85-73.273,47.395-34.109,124.736c5.766-0.295,9.033-0.271,14.611-0.082
				c35.527,0.774,55.521,18.815,56.435,20.424c-8.491-24.18-10.578-47.99-2.573-71.85c7.27-22.451,35.26-46.384,35.018-46.074
				C725.143,387.377,714.761,370.674,714.824,370.295z"/>
		</g>
		<g>
			<path fill="#C61F4D" d="M483.006,460.018c9.968,45.375-29.012,79.438-52.104,90.759c-26.91,11.729-32.406,10.692-31.54-1.701
				c0.851-13.785-3.308-27.273-9.333-37.549c-5.883-10.736-13.619-18.229-16.533-30.734c-8.35-24.139,9.573-41.35,3.462-67.223
				c-1.865-11.199-6.245-16.922,19.68-14.995C418.609,401.199,470.003,414.348,483.006,460.018z"/>
		</g>
		<g>
			<path fill="#1B1112" d="M483.006,460.018c-13.003-45.67-64.396-58.815-86.368-61.443c-25.929-1.927-21.545,3.796-19.68,14.995
				c0.12,0.532,0.262,1.096,0.372,1.627c2.587-4.728,57.758,9.647,68.974,49.592c10.589,44.164-42.518,83.289-47.043,78.467
				c0.089,1.974,0.1,3.951,0.101,5.818c-0.863,12.396,4.622,13.426,31.316,1.428C453.991,539.441,492.972,505.396,483.006,460.018z"
				/>
		</g>
		<path fill="#FFFFFF" d="M246.761,309.198c0.742,4.818-1.782,9.358-5.701,10.185c-3.914,0.826-7.806-2.403-8.628-7.245
			c-0.827-4.841,1.807-9.444,5.804-10.245C242.229,301.096,246.021,304.382,246.761,309.198z"/>
		<path fill="#020202" d="M452.307,9.538c-2.893-0.841-6.318-0.785-10.713,0.835c-7.494-6.085-15.427-9.931-25.041-5.621
			c-10.988-5.212-15.714-3.356-19.701-0.688c-2.503-0.87-18.002-8.71-29.116,0.024c-18.089-8.337-28.354,3.024-25.646,17.608
			c-5.777,4.699-11.665,9.278-6.367,23.54c-5.23,5.284-5.483,12.774-0.692,23.497c-4.859,8.238-3.009,15.765,2.373,22.911
			c-5.252,11.727,4.896,22.835,7.795,26.555c-0.869,7.544-0.07,15.191,12.943,23.505c-1.085,11.311,6.868,15.911,14.421,20.812
			c-11.314,2.44,28.287,9.773,76.568,22.444c16.612,4.36,17.875-15.593,55.204,0.357c43.302,7.336,31.625,27.201,47.707,33.505
			c50.947,19.961,87.165,37.432,78.198,27.409c8.99,0.477,18.124,1.431,23.895-8.361c15.417,0.927,20.562-4.786,24.289-11.404
			c4.532-1.309,19.271-4.33,21.921-16.901c8.548-2.619,14.468-7.623,15.376-17.143c10.187-5.857,14.381-12.065,13.256-19.418
			c12.668-8.413,10.593-15.585,8.689-22.777c10.76-10.21,9.133-25.434-10.406-29.32c-3.854-13.599-21.002-16.366-23.541-17.133
			c-1.658-4.5-4.39-8.783-16.342-11.024c-5.251-9.139-13.924-10.688-23.566-10.169c-7.563-11.333-16.382-7.087-24.868-7.151
			c-11.007-8.028-15.615-3.432-22.398-3.149c-12.509-7.202-18.599-2.348-27.156,2.081l-7.441-2.583
			c-24.146,5.354-42.104,26.396-49.735,37.737c0.491-13.661-1.65-41.235-18.029-59.757l-7.539-2.282
			c-4.326-8.619-6.399-16.126-20.757-17.651c-5.323-4.211-6.338-10.636-19.974-10.617c-4.528-3.237-8.094-8.064-13.613-9.669"/>
		<path fill="#6FBF4A" d="M394.9,48.959c44.751,45.181,68.713,77.751,79.631,102.404c-20.184,32.292-66.441,19.035-82.849,12.617
			c3.942-0.481,7.423-1.461,9.389-4.068c-3.229-4.344-18.976-6.512-27.468-15.724c4.261,0.468,6.389,0.269,9.211-2.068
			c-8.8-6.317-18.49-12.453-23.025-19.658c3.343,1.132,6.244,2.858,11.611,1.244c-7.249-7.595-15.409-14.394-20.345-24.005
			c4.58,1.365,9.458,3.024,11.425,1.815c-6.425-7.599-11.41-15.348-15.062-23.237c6.112,2.835,9.012,3.048,10.913,2.438
			c-4.06-8.208-10.046-15.966-11.226-24.834c4.192,3.16,8.312,5.186,12.205,3.805c-0.554-5.329-8.511-10.96-10.069-23.511
			c4.812,2.097,9.891,4.411,11.301,3.67c0.746-10.152-1.494-16.725-3.6-23.461c10.69,3.299,26.747,8.734,26.311,7.6l-4.397-8.858
			c11.304,0.579,20.883,7.281,27.819,12.201c4.354-1.609,1.951-6.215-1.132-11.12c8.451,4.052,15.77,8.674,22.078,13.816
			c4.982-2.232-0.242-7.776-2.186-12.254c12.804,7.024,17.399,12.538,21.965,18.043c5.468-2.639,2.639-7.311,0.957-11.703
			c9.055,7.15,12.755,13.797,16.752,20.465c2.724-1.938,6.244-2.864,4.727-10.165c5.938,6.584,9.827,13.334,12.092,20.215
			c5.453-1.408,4.907-5.937,6.105-9.559c5.589,8.643,8.271,16.781,12.082,25.114c1.474-0.482,3.464-3.075,5.889-7.416
			c12.403,23.455,23.617,76.032-19.214,81.517c-23.126-36.325-54.711-67.53-91.912-95.326h0.022 M680.113,141.631
			c-62.751,10.252-101.281,22.509-124.605,36.043c-2.65,37.991,42.564,54.452,59.605,58.902c-2.904-2.706-5.141-5.546-5.204-8.804
			c5.173-1.622,19.183,5.881,31.465,3.42c-3.724-2.123-5.325-3.537-6.237-7.086c10.836,0.057,22.279,0.795,30.184-2.371
			c-3.368-1.049-6.732-1.357-10.127-5.818c10.328-1.883,20.935-2.588,30.569-7.464c-4.507-1.587-9.429-3.113-10.311-5.245
			c9.664-2.37,18.254-5.71,25.844-9.945c-6.614-1.301-9.082-2.836-10.259-4.438c8.104-4.259,17.513-7.016,23.675-13.501
			c-5.25,0.094-9.774-0.685-12.106-4.092c3.578-3.989,13.325-3.862,21.964-13.102c-5.128-1.133-10.598-2.246-11.298-3.671
			c5.365-8.653,11.039-12.651,16.705-16.864c-10.586-3.615-26.772-8.655-25.753-9.317l8.769-4.584
			c-9.49-6.174-21.178-6.381-29.685-6.479c-2.577-3.858,2.071-6.175,7.449-8.33c-9.212-1.693-17.854-2.257-25.977-1.801
			c-2.727-4.734,4.762-6.15,8.968-8.627c-14.486-1.851-21.446-0.085-28.383,1.686c-2.867-5.351,2.17-7.469,6.108-10.032
			c-11.527,0.47-18.426,3.665-25.585,6.711c-1.062-3.169-3.367-5.989,2.153-11.002c-8.672,1.837-15.787,5.011-21.667,9.248
			c-3.585-4.349-0.477-7.688,0.681-11.323c-9.604,3.708-16.554,8.712-24.538,13.217c-0.903-1.255-0.989-4.522-0.407-9.463
			c-23.817,11.686-63.791,47.635-32.366,77.242c40.045-15.807,83.935-22.483,130.369-23.104V141.631"/>
	</g>
	<g enable-background="new    ">
		<path d="M65.332,764.604h-23.34v52.051H12.695V674.467h52.832c16.797,0,29.751,3.744,38.867,11.23
			c9.114,7.487,13.672,18.066,13.672,31.738c0,9.701-2.1,17.79-6.299,24.268c-4.199,6.479-10.563,11.638-19.092,15.479
			l30.762,58.105v1.367H91.992L65.332,764.604z M41.992,740.873h23.633c7.356,0,13.052-1.871,17.09-5.615
			c4.036-3.743,6.055-8.902,6.055-15.479c0-6.705-1.904-11.979-5.713-15.82c-3.809-3.841-9.653-5.762-17.529-5.762H41.992V740.873z"
			/>
		<path d="M187.109,818.607c-15.495,0-28.11-4.752-37.842-14.258c-9.733-9.505-14.6-22.168-14.6-37.988v-2.734
			c0-10.611,2.051-20.101,6.152-28.467c4.102-8.365,9.912-14.811,17.432-19.336c7.52-4.524,16.097-6.787,25.732-6.787
			c14.453,0,25.83,4.558,34.131,13.672c8.301,9.115,12.451,22.038,12.451,38.77v11.523h-67.285
			c0.911,6.901,3.662,12.436,8.252,16.602c4.59,4.167,10.4,6.25,17.432,6.25c10.872,0,19.368-3.938,25.488-11.816l13.867,15.527
			c-4.233,5.99-9.961,10.661-17.188,14.014S195.898,818.607,187.109,818.607z M183.887,731.791c-5.6,0-10.141,1.896-13.623,5.69
			c-3.483,3.793-5.713,9.221-6.689,16.282h39.258v-2.257c-0.131-6.277-1.823-11.133-5.078-14.566
			C194.498,733.508,189.876,731.791,183.887,731.791z"/>
		<path d="M295.215,818.607c-15.495,0-28.11-4.752-37.842-14.258c-9.733-9.505-14.6-22.168-14.6-37.988v-2.734
			c0-10.611,2.051-20.101,6.152-28.467c4.102-8.365,9.912-14.811,17.432-19.336c7.52-4.524,16.097-6.787,25.732-6.787
			c14.453,0,25.83,4.558,34.131,13.672c8.301,9.115,12.451,22.038,12.451,38.77v11.523h-67.285
			c0.911,6.901,3.662,12.436,8.252,16.602c4.59,4.167,10.4,6.25,17.432,6.25c10.872,0,19.368-3.938,25.488-11.816l13.867,15.527
			c-4.233,5.99-9.961,10.661-17.188,14.014S304.004,818.607,295.215,818.607z M291.992,731.791c-5.6,0-10.141,1.896-13.623,5.69
			c-3.483,3.793-5.713,9.221-6.689,16.282h39.258v-2.257c-0.131-6.277-1.823-11.133-5.078-14.566
			C302.603,733.508,297.981,731.791,291.992,731.791z"/>
		<path d="M362.402,816.654v-84.961H346.68V710.99h15.723v-8.984c0-11.849,3.401-21.045,10.205-27.588
			c6.802-6.543,16.324-9.814,28.564-9.814c3.906,0,8.691,0.651,14.355,1.953l-0.293,21.875c-2.344-0.586-5.209-0.879-8.594-0.879
			c-10.612,0-15.918,4.98-15.918,14.941v8.496h20.996v20.703h-20.996v84.961H362.402z"/>
		<path d="M521.582,764.799c0,16.928-3.613,30.127-10.84,39.6s-17.319,14.209-30.273,14.209c-11.459,0-20.605-4.395-27.441-13.184
			l-1.27,11.23h-25.391v-150h28.223v53.809c6.509-7.617,15.071-11.426,25.684-11.426c12.891,0,22.998,4.736,30.322,14.209
			s10.986,22.803,10.986,39.99V764.799z M493.359,762.748c0-10.677-1.694-18.473-5.078-23.389
			c-3.386-4.915-8.432-7.373-15.137-7.373c-8.984,0-15.17,3.679-18.555,11.035v41.699c3.45,7.422,9.7,11.133,18.75,11.133
			c9.114,0,15.103-4.492,17.969-13.477C492.676,778.08,493.359,771.537,493.359,762.748z"/>
		<path d="M587.598,818.607c-15.495,0-28.109-4.752-37.842-14.258c-9.733-9.505-14.6-22.168-14.6-37.988v-2.734
			c0-10.611,2.051-20.101,6.152-28.467c4.102-8.365,9.912-14.811,17.432-19.336c7.52-4.524,16.097-6.787,25.732-6.787
			c14.453,0,25.83,4.558,34.131,13.672c8.301,9.115,12.451,22.038,12.451,38.77v11.523H563.77
			c0.911,6.901,3.662,12.436,8.252,16.602c4.59,4.167,10.4,6.25,17.432,6.25c10.872,0,19.368-3.938,25.488-11.816l13.867,15.527
			c-4.232,5.99-9.961,10.661-17.188,14.014S596.387,818.607,587.598,818.607z M584.375,731.791c-5.6,0-10.141,1.896-13.623,5.69
			c-3.483,3.793-5.713,9.221-6.689,16.282h39.258v-2.257c-0.131-6.277-1.823-11.133-5.078-14.566
			C594.986,733.508,590.364,731.791,584.375,731.791z"/>
		<path d="M706.445,737.455c-3.842-0.521-7.227-0.781-10.156-0.781c-10.678,0-17.676,3.613-20.996,10.84v69.141H647.07V710.99h26.66
			l0.781,12.598c5.664-9.7,13.509-14.551,23.535-14.551c3.125,0,6.055,0.424,8.789,1.27L706.445,737.455z"/>
		<path d="M779.395,737.455c-3.842-0.521-7.227-0.781-10.156-0.781c-10.678,0-17.676,3.613-20.996,10.84v69.141H720.02V710.99h26.66
			l0.781,12.598c5.664-9.7,13.509-14.551,23.535-14.551c3.125,0,6.055,0.424,8.789,1.27L779.395,737.455z"/>
		<path d="M834.18,776.713l19.531-65.723h30.273l-42.48,122.07l-2.344,5.566c-6.315,13.802-16.732,20.703-31.25,20.703
			c-4.102,0-8.269-0.619-12.5-1.855v-21.387l4.297,0.098c5.338,0,9.326-0.814,11.963-2.441c2.637-1.628,4.703-4.33,6.201-8.105
			l3.32-8.691L784.18,710.99h30.371L834.18,776.713z"/>
		<path d="M976.074,766.557v50.098h-29.297V674.467h55.469c10.677,0,20.068,1.953,28.174,5.859s14.339,9.457,18.701,16.65
			c4.361,7.194,6.543,15.381,6.543,24.561c0,13.933-4.77,24.919-14.307,32.959c-9.538,8.041-22.738,12.061-39.6,12.061H976.074z
			 M976.074,742.826h26.172c7.747,0,13.655-1.822,17.725-5.469c4.068-3.646,6.104-8.854,6.104-15.625
			c0-6.966-2.051-12.598-6.152-16.895s-9.766-6.51-16.992-6.641h-26.855V742.826z"/>
		<path d="M1073.73,683.646c0-4.231,1.416-7.715,4.248-10.449s6.689-4.102,11.572-4.102c4.817,0,8.658,1.367,11.523,4.102
			c2.864,2.734,4.297,6.218,4.297,10.449c0,4.297-1.449,7.812-4.346,10.547c-2.897,2.734-6.723,4.102-11.475,4.102
			c-4.753,0-8.578-1.367-11.475-4.102C1075.179,691.459,1073.73,687.943,1073.73,683.646z M1103.711,816.654h-28.32V710.99h28.32
			V816.654z"/>
	</g>
</g>
<g enable-background="new    ">
	<path d="M767.519,904.794c0.438-0.547,0.984-0.965,1.641-1.254s1.398-0.434,2.227-0.434c1.57,0,2.879,0.529,3.926,1.588
		s1.57,2.369,1.57,3.932c0,1.539-0.537,2.844-1.611,3.914s-2.385,1.605-3.932,1.605c-0.82,0-1.535-0.145-2.145-0.434
		s-1.109-0.727-1.5-1.312v0.938c0,0.211-0.037,0.363-0.111,0.457s-0.197,0.141-0.369,0.141h-2.145c-0.305,0-0.531-0.07-0.68-0.211
		s-0.223-0.352-0.223-0.633c0-0.312,0.09-0.525,0.27-0.639s0.535-0.17,1.066-0.17h0.246v-12h-0.223c-0.531,0-0.895-0.062-1.09-0.188
		s-0.293-0.344-0.293-0.656c0-0.281,0.078-0.492,0.234-0.633s0.387-0.211,0.691-0.211h1.781c0.234,0,0.404,0.039,0.51,0.117
		s0.158,0.199,0.158,0.363V904.794z M771.175,912.306c1.102,0,1.996-0.348,2.684-1.043s1.031-1.598,1.031-2.707
		c0-1.086-0.35-1.98-1.049-2.684s-1.588-1.055-2.666-1.055c-1.086,0-1.975,0.35-2.666,1.049s-1.037,1.596-1.037,2.689
		s0.346,1.992,1.037,2.695S770.089,912.306,771.175,912.306z"/>
	<path d="M784.065,916.935h0.504c0.57,0,0.957,0.061,1.16,0.182s0.305,0.342,0.305,0.662c0,0.273-0.08,0.48-0.24,0.621
		s-0.393,0.211-0.697,0.211h-5.402c-0.367,0-0.623-0.062-0.768-0.188s-0.217-0.34-0.217-0.645c0-0.281,0.076-0.492,0.229-0.633
		s0.381-0.211,0.686-0.211h2.543l1.898-3.742l-4.301-8.434c-0.516,0-0.869-0.062-1.061-0.187s-0.287-0.341-0.287-0.651
		c0-0.271,0.078-0.475,0.234-0.611c0.156-0.135,0.391-0.203,0.703-0.203h3.27c0.438,0,0.73,0.061,0.879,0.181
		s0.223,0.331,0.223,0.634c0,0.311-0.098,0.527-0.293,0.651s-0.555,0.187-1.078,0.187h-0.434l3.176,6.469l3.234-6.469h-0.457
		c-0.539,0-0.91-0.062-1.113-0.187s-0.305-0.341-0.305-0.651c0-0.303,0.074-0.514,0.223-0.634s0.445-0.181,0.891-0.181h2.895
		c0.32,0,0.557,0.068,0.709,0.203c0.152,0.137,0.229,0.34,0.229,0.611c0,0.295-0.086,0.504-0.258,0.629
		c-0.172,0.124-0.477,0.193-0.914,0.209L784.065,916.935z"/>
</g>
</svg>
