#define reefberrypi_logo_width 16
#define reefberrypi_logo_height 13
static unsigned char reefberrypi_logo_bits[] = {
   0x00, 0x00, 0x50, 0x00, 0x90, 0x04, 0x80, 0x01, 0xe0, 0x05, 0x88, 0x0c,
   0x4e, 0x1a, 0x0a, 0x74, 0x44, 0x72, 0x48, 0x6e, 0x60, 0x26, 0xc0, 0x00,
   0x00, 0x00 };
